<?xml version="1.0" standalone="no"?>
<!DOCTYPE svg PUBLIC "-//W3C//DTD SVG 20010904//EN"
 "http://www.w3.org/TR/2001/REC-SVG-20010904/DTD/svg10.dtd">
<svg version="1.0" xmlns="http://www.w3.org/2000/svg"
 width="23.000000pt" height="20.000000pt" viewBox="0 0 23.000000 20.000000"
 preserveAspectRatio="xMidYMid meet">

<g transform="translate(0.000000,20.000000) scale(0.100000,-0.100000)"
fill="#000000" stroke="none">
<path d="M3 178 c5 -18 219 -18 225 0 3 9 -24 12 -113 12 -89 0 -116 -3 -112
-12z"/>
<path d="M4 109 c-12 -20 20 -29 111 -29 91 0 123 9 111 29 -10 15 -212 15
-222 0z"/>
<path d="M7 34 c-19 -19 2 -24 109 -24 88 0 115 3 112 12 -5 14 -208 24 -221
12z"/>
</g>
</svg>
