<svg width="105" height="20" viewBox="0 0 105 20" fill="none" xmlns="http://www.w3.org/2000/svg">
<path d="M15.517 19.32H14.185V9.94002C14.185 9.94002 14.185 9.90302 14.185 9.83402C13.7846 9.72459 13.3711 9.67109 12.956 9.67502C10.446 9.66802 9.99502 14.075 5.24702 14.152C0.499023 14.229 -0.000976562 9.08902 -0.000976562 9.08902V0.52002H2.78602V9.08902C2.85466 9.70226 3.14132 10.2704 3.59377 10.69C4.04622 11.1096 4.63436 11.3527 5.25102 11.375C6.85102 11.383 7.71402 10.312 8.71002 9.24102C9.20773 8.58363 9.84977 8.04933 10.5866 7.67934C11.3235 7.30934 12.1355 7.11354 12.96 7.10702C13.5236 7.10533 14.0864 7.1488 14.643 7.23702C15.351 4.83702 17.151 1.73702 21.732 1.82702C29.702 2.00002 30.263 13.942 21.732 14.152C20.7681 14.1886 19.81 13.9869 18.9427 13.5646C18.0754 13.1422 17.3256 12.5124 16.76 11.731C16.766 11.822 16.77 11.871 16.77 11.871V19.32H15.517ZM21.731 11.641C22.2175 11.6359 22.6979 11.5329 23.1437 11.3383C23.5896 11.1437 23.9917 10.8614 24.3262 10.5081C24.6607 10.1549 24.9207 9.73801 25.0908 9.28224C25.2609 8.82646 25.3375 8.34114 25.3162 7.85513C25.2949 7.36913 25.176 6.89239 24.9666 6.45327C24.7572 6.01416 24.4617 5.62165 24.0975 5.2991C23.7334 4.97655 23.308 4.73056 22.8468 4.57576C22.3857 4.42096 21.898 4.36051 21.413 4.39802C18.68 4.39802 17.527 6.34602 17.054 8.25302C18.681 9.59702 18.599 11.653 21.731 11.638V11.641ZM68.949 12.62C68.3497 12.0268 67.8806 11.3152 67.5715 10.5306C67.2624 9.746 67.1203 8.90562 67.154 8.06302C67.1366 7.33968 67.2655 6.62028 67.533 5.94803C67.8006 5.27577 68.2013 4.66453 68.711 4.15102C69.3102 3.55701 70.0249 3.09241 70.811 2.78602C71.5962 2.4772 72.4323 2.3178 73.276 2.31602C74.1553 2.31063 75.0249 2.4991 75.823 2.86802C76.659 3.2941 77.3795 3.91613 77.923 4.68102C78.3571 5.30608 78.6714 6.00627 78.85 6.74602C79.0469 7.52981 79.1091 8.34137 79.034 9.14602H70.166C70.2976 9.71927 70.6033 10.2378 71.0413 10.6304C71.4792 11.023 72.0279 11.2706 72.612 11.339C72.8037 11.3679 72.9972 11.3826 73.191 11.383C73.8939 11.3854 74.5805 11.1717 75.158 10.771C75.4088 10.6015 75.6326 10.3951 75.822 10.159L78.138 11.851C77.7782 12.2345 77.3756 12.5754 76.938 12.867C75.9651 13.539 74.839 13.9561 73.663 14.08C73.453 14.097 73.242 14.107 73.035 14.107C71.5344 14.1432 70.0754 13.6122 68.949 12.62ZM73.229 4.86502C72.706 4.85601 72.1882 4.9708 71.718 5.20002C71.3644 5.37925 71.0519 5.62986 70.8 5.93602C70.5371 6.25057 70.3402 6.6148 70.221 7.00702H76.221C76.1037 6.61502 75.9085 6.25074 75.647 5.93602C75.3968 5.62988 75.0855 5.37922 74.733 5.20002C74.2637 4.97132 73.747 4.85687 73.225 4.86602L73.229 4.86502ZM51.69 14.02V6.93502C51.6422 6.47293 51.4233 6.04542 51.0764 5.73643C50.7294 5.42744 50.2796 5.2593 49.815 5.26502C49.3384 5.26332 48.8764 5.4299 48.5106 5.7354C48.1447 6.0409 47.8984 6.46572 47.815 6.93502V14.02H44.819V2.66302H47.619V3.52002C48.266 2.95887 49.0615 2.59678 49.9096 2.47737C50.7577 2.35797 51.6222 2.48634 52.399 2.84702C53.1456 3.22426 53.7644 3.81329 54.178 4.54042C54.5915 5.26755 54.7815 6.10049 54.724 6.93502V14.02H51.69ZM36.871 14.02C36.147 14.031 35.4311 13.8659 34.785 13.539C34.0967 13.1749 33.5492 12.5919 33.229 11.882C33.0464 11.521 32.9382 11.1269 32.9109 10.7232C32.8836 10.3195 32.9377 9.91439 33.07 9.53202C33.2616 9.06964 33.5423 8.64953 33.8963 8.29572C34.2503 7.94191 34.6705 7.66133 35.133 7.47002C36.7968 6.81161 38.5625 6.44752 40.351 6.39402C40.3297 6.12529 40.2432 5.8658 40.099 5.63802C39.9132 5.37882 39.6668 5.16903 39.3813 5.02697C39.0958 4.8849 38.7798 4.81488 38.461 4.82302C38.414 4.82302 38.366 4.82302 38.319 4.82302C37.6463 4.81128 36.9955 5.06241 36.505 5.52302C36.2951 5.72241 36.1236 5.95866 35.999 6.22002L33.415 5.33702C33.6505 4.77634 33.9929 4.26686 34.423 3.83702C34.8513 3.40113 35.3578 3.04968 35.916 2.80102C36.6607 2.47957 37.465 2.31907 38.276 2.33002C38.5375 2.33058 38.7989 2.34426 39.059 2.37102C39.9576 2.43842 40.8301 2.70376 41.614 3.14802C42.1435 3.46105 42.5895 3.89744 42.914 4.42002C43.232 4.93243 43.4138 5.51761 43.442 6.12002V13.979H40.649V12.479C39.9712 13.138 39.136 13.6127 38.223 13.858C37.7806 13.9647 37.3261 14.0191 36.871 14.02ZM38.387 8.94702C37.472 9.13902 36.307 9.50502 35.949 10.158C35.8665 10.3204 35.8289 10.5019 35.8401 10.6837C35.8514 10.8656 35.9111 11.041 36.013 11.192C36.2057 11.3986 36.4408 11.5611 36.7021 11.6684C36.9634 11.7758 37.2448 11.8254 37.527 11.814C38.2633 11.8168 38.9711 11.5293 39.497 11.014C40.0417 10.3643 40.3273 9.53637 40.299 8.68902C39.6563 8.73444 39.0172 8.8223 38.386 8.95202L38.387 8.94702ZM28.923 14.02V0.52002H31.899V14.02H28.923ZM55.74 8.05602C55.74 3.32702 59.977 1.65002 63.059 2.43102C63.8893 2.70333 64.643 3.16874 65.2584 3.789C65.8738 4.40926 66.3333 5.16667 66.599 5.99902L63.756 6.64702C63.5491 6.19528 63.23 5.80398 62.8292 5.51028C62.4284 5.21659 61.9591 5.03027 61.466 4.96902C59.908 4.90902 58.788 5.76902 58.779 8.05702C58.771 10.317 60.219 11.586 62.13 11.213C63.593 10.757 63.755 9.88302 63.755 9.88302L66.598 10.35C66.427 11.1307 66.0489 11.8508 65.5034 12.4349C64.9579 13.0189 64.2652 13.4452 63.498 13.669C62.862 13.8623 62.2008 13.9603 61.536 13.96C60.7564 13.9948 59.9781 13.8651 59.2519 13.5793C58.5257 13.2934 57.8678 12.8578 57.321 12.3009C56.7743 11.744 56.351 11.0782 56.0786 10.3468C55.8062 9.61544 55.6908 8.83491 55.74 8.05602Z" fill="black"/>
<path d="M82.1433 13.7971C82.7707 13.7971 83.2793 13.2791 83.2793 12.6401C83.2793 12.0011 82.7707 11.4831 82.1433 11.4831C81.5159 11.4831 81.0073 12.0011 81.0073 12.6401C81.0073 13.2791 81.5159 13.7971 82.1433 13.7971Z" fill="black"/>
<path d="M88.0102 14.1721C87.5475 14.1919 87.0868 14.0998 86.6672 13.9037C86.2477 13.7075 85.8817 13.4129 85.6002 13.0451C85.2034 12.5 85.0051 11.8355 85.0382 11.1621C85.0462 10.6157 85.245 10.0893 85.6002 9.67407C86.3193 9.01656 87.2494 8.63715 88.2232 8.60407H91.1922C91.2906 8.12672 91.2199 7.63001 90.9922 7.19907C90.8716 7.01716 90.7142 6.86244 90.5303 6.74483C90.3464 6.62722 90.14 6.5493 89.9242 6.51607C89.7645 6.48134 89.6017 6.46325 89.4382 6.46207C89.1751 6.46107 88.9148 6.5161 88.6746 6.62352C88.4344 6.73094 88.2199 6.88828 88.0452 7.08507C87.8765 7.26873 87.7396 7.4793 87.6402 7.70807H85.2382C85.3738 7.13819 85.6272 6.60303 85.9822 6.13707C86.3224 5.6855 86.759 5.31551 87.2602 5.05407C87.9427 4.71468 88.6972 4.54585 89.4592 4.56207C89.5452 4.56207 89.6342 4.56207 89.7232 4.56707C90.5114 4.57569 91.2846 4.7842 91.9702 5.17307C92.4493 5.46147 92.8466 5.8677 93.1242 6.35307C93.4155 6.86304 93.5823 7.43451 93.6112 8.02107V13.9931H91.5382L91.1922 12.6481C90.8288 13.1788 90.3182 13.5917 89.7232 13.8361C89.1781 14.0536 88.5972 14.1675 88.0102 14.1721ZM88.8902 10.0911C88.5478 10.0959 88.2119 10.1853 87.9122 10.3511C87.7881 10.4331 87.6848 10.5428 87.6103 10.6715C87.5359 10.8003 87.4924 10.9446 87.4832 11.0931C87.5013 11.2811 87.5622 11.4624 87.6614 11.6231C87.7606 11.7838 87.8953 11.9196 88.0552 12.0201C88.3014 12.2253 88.6108 12.3394 88.9312 12.3431C89.1939 12.3272 89.4502 12.2554 89.6828 12.1324C89.9155 12.0094 90.1191 11.8382 90.2802 11.6301C90.6478 11.1772 90.9177 10.6532 91.0732 10.0911H88.8902Z" fill="black"/>
<path d="M99.4401 14.1721C98.2372 14.2013 97.0674 13.776 96.1641 12.9811C95.6836 12.5054 95.3075 11.9348 95.0597 11.3056C94.8119 10.6765 94.698 10.0027 94.7251 9.32706C94.7109 8.74696 94.8142 8.16997 95.0288 7.63084C95.2435 7.09172 95.565 6.60162 95.9741 6.19006C96.454 5.71409 97.0265 5.34173 97.6561 5.09606C98.2856 4.84845 98.9557 4.72059 99.6321 4.71906C100.337 4.71484 101.035 4.8661 101.675 5.16206C102.347 5.50437 102.925 6.00431 103.361 6.61906C103.709 7.12002 103.961 7.68119 104.104 8.27407C104.262 8.90173 104.312 9.55164 104.252 10.1961H97.1391C97.2451 10.6554 97.4905 11.0707 97.8417 11.3851C98.193 11.6994 98.6329 11.8975 99.1011 11.9521C99.2547 11.9752 99.4098 11.9869 99.5651 11.9871C100.129 11.9889 100.679 11.8175 101.142 11.4961C101.343 11.3599 101.523 11.1944 101.675 11.0051L103.532 12.3611C103.244 12.6685 102.922 12.942 102.571 13.1761C101.791 13.7146 100.888 14.0488 99.9451 14.1481C99.7751 14.1651 99.6061 14.1721 99.4401 14.1721ZM99.5961 6.76306C99.177 6.75584 98.7621 6.84766 98.3851 7.03106C98.1016 7.17477 97.851 7.37566 97.6491 7.62106C97.4385 7.87307 97.2807 8.16486 97.1851 8.47906H101.999C101.905 8.16473 101.749 7.87257 101.539 7.62006C101.338 7.37459 101.089 7.17365 100.806 7.03007C100.43 6.84657 100.016 6.75474 99.5971 6.76206L99.5961 6.76306Z" fill="black"/>
</svg>
