<?xml version="1.0" standalone="no"?>
<!DOCTYPE svg PUBLIC "-//W3C//DTD SVG 20010904//EN"
 "http://www.w3.org/TR/2001/REC-SVG-20010904/DTD/svg10.dtd">
<svg version="1.0" xmlns="http://www.w3.org/2000/svg"
 width="206.000000pt" height="38.000000pt" viewBox="0 0 206.000000 38.000000"
 preserveAspectRatio="xMidYMid meet">

<g transform="translate(0.000000,38.000000) scale(0.100000,-0.100000)"
fill="#000000" stroke="none">
<path d="M0 280 c0 -132 24 -170 110 -170 33 0 48 7 84 40 24 22 53 40 65 40
20 0 21 -5 21 -95 0 -95 0 -95 25 -95 24 0 25 2 25 76 l0 75 26 -20 c19 -15
41 -21 76 -21 41 0 54 5 78 29 34 34 45 68 36 115 -7 38 -51 82 -92 92 -60 15
-131 -20 -154 -76 -7 -18 -19 -30 -29 -29 -42 4 -61 -4 -101 -41 -44 -41 -76
-50 -98 -28 -8 8 -12 46 -12 105 l0 93 -30 0 -30 0 0 -90z m477 -6 c20 -20 24
-31 19 -57 -8 -40 -30 -57 -73 -57 -22 0 -40 8 -58 27 -27 30 -31 50 -12 74
34 44 87 50 124 13z"/>
<path d="M570 240 l0 -130 30 0 30 0 0 130 0 130 -30 0 -30 0 0 -130z"/>
<path d="M699 325 c-37 -20 -44 -44 -16 -54 15 -6 27 -4 39 6 19 17 59 14 66
-4 2 -7 -2 -13 -10 -13 -30 0 -91 -23 -109 -41 -59 -59 26 -139 104 -98 16 9
22 9 25 0 2 -6 17 -11 33 -11 l29 0 0 74 c0 41 -4 86 -10 100 -18 49 -97 70
-151 41z m91 -127 c0 -19 -32 -48 -52 -48 -27 0 -35 30 -13 46 23 17 65 18 65
2z"/>
<path d="M977 334 c-4 -4 -27 -6 -52 -6 l-45 2 0 -110 0 -110 30 0 29 0 3 76
c2 60 7 79 21 88 12 8 22 8 35 0 13 -9 18 -28 20 -88 l3 -76 30 0 31 0 -4 90
c-2 73 -7 93 -23 109 -22 22 -67 36 -78 25z"/>
<path d="M1164 330 c-54 -22 -81 -103 -53 -163 30 -67 150 -76 188 -15 11 17
10 22 -1 29 -20 13 -44 11 -58 -6 -16 -19 -44 -19 -64 1 -32 31 -12 114 28
114 7 0 21 -7 32 -15 22 -17 60 -20 69 -5 4 6 -7 24 -24 40 -31 31 -72 38
-117 20z"/>
<path d="M1383 321 c-49 -31 -67 -64 -60 -114 8 -58 52 -97 110 -97 44 0 88
17 94 37 6 17 -36 38 -50 24 -18 -18 -62 -13 -82 9 -18 20 -17 20 68 20 47 0
89 5 92 10 10 16 -13 75 -39 99 -34 32 -93 37 -133 12z m98 -51 l24 -19 -57
-1 c-58 0 -73 10 -40 29 26 16 47 13 73 -9z"/>
<path d="M1724 285 c-26 -11 -44 -32 -44 -51 0 -2 11 -4 25 -4 14 0 25 4 25 9
0 13 27 21 45 15 29 -12 15 -31 -26 -37 -23 -3 -51 -15 -63 -26 -19 -20 -20
-23 -6 -49 17 -30 65 -41 100 -22 13 7 20 7 20 0 0 -5 9 -10 20 -10 18 0 20 7
20 73 0 58 -4 77 -17 89 -27 23 -65 28 -99 13z m66 -104 c0 -12 -28 -41 -39
-41 -18 0 -31 26 -19 38 14 14 58 16 58 3z"/>
<path d="M1913 280 c-30 -12 -56 -66 -48 -99 11 -45 44 -71 90 -71 43 0 86 22
72 37 -5 4 -29 8 -54 8 -28 0 -48 5 -50 13 -4 9 13 12 61 12 66 0 66 0 66 28
0 59 -73 98 -137 72z m85 -47 c2 -9 -9 -13 -37 -13 -39 0 -55 13 -28 24 21 8
60 2 65 -11z"/>
<path d="M1601 146 c-9 -10 -8 -16 4 -26 19 -16 41 1 32 24 -8 20 -21 20 -36
2z"/>
</g>
</svg>
