<?xml version="1.0" standalone="no"?>
<!DOCTYPE svg PUBLIC "-//W3C//DTD SVG 20010904//EN"
 "http://www.w3.org/TR/2001/REC-SVG-20010904/DTD/svg10.dtd">
<svg version="1.0" xmlns="http://www.w3.org/2000/svg"
 width="56.000000pt" height="33.000000pt" viewBox="0 0 56.000000 33.000000"
 preserveAspectRatio="xMidYMid meet">

<g transform="translate(0.000000,33.000000) scale(0.100000,-0.100000)"
fill="#000000" stroke="none">
<path d="M104 311 c-57 -26 -87 -72 -92 -140 -5 -70 22 -115 88 -149 39 -19
59 -22 175 -22 151 0 193 9 234 51 63 63 65 152 4 219 -46 51 -80 60 -238 60
-105 0 -138 -4 -171 -19z m364 -21 c52 -32 74 -76 69 -138 -3 -46 -9 -59 -41
-90 l-36 -37 -168 -3 c-196 -3 -218 4 -254 84 -23 52 -19 90 12 142 32 52 65
61 235 62 132 0 154 -2 183 -20z"/>
</g>
</svg>
